# xmcd
#
# Track frame offsets:
# 150
# 19303
# 53318
# 82690
# 103990
# 123584
# 142893
#
# Disc length: 2178 seconds
#
# Revision: 1
# Processed by: cddbd v1.5.1PL0 Copyright (c) Steve Scherf et al.
# Submitted via: CedeCatalogueitor 2.6.0.6 http://personales.ya.com/cdcatalogueitor
#
DISCID=4f088007
DTITLE=Amelita Baltar - Amelita Baltar Interpreta A  Piazzolla Y Ferrer
DYEAR=1970
DGENRE=Tango
TTITLE0=Preludio Para El Año 3001
TTITLE1=Preludio Para La Cruz Del Sur
TTITLE2=Preludio Para Un Canillita
TTITLE3=Balada Para Un Loco
TTITLE4=Balada Para Mi Muerte
TTITLE5=Balada Para El
TTITLE6=Chiquilin De Bachin
EXTD=
EXTT0=
EXTT1=
EXTT2=
EXTT3=
EXTT4=
EXTT5=
EXTT6=
PLAYORDER=
